<mxfile host="app.diagrams.net" modified="2021-07-01T15:47:06.487Z" agent="5.0 (Windows NT 10.0; WOW64) AppleWebKit/537.36 (KHTML, like Gecko) Chrome/91.0.4472.114 Safari/537.36" etag="ZetT1Q2tfJNPY22ZPE2B" version="14.8.3" type="github">
  <diagram id="1uCHZmguAvhqjtkqj0LQ" name="Page-1">
    <mxGraphModel dx="1038" dy="546" grid="1" gridSize="10" guides="1" tooltips="1" connect="1" arrows="1" fold="1" page="1" pageScale="1" pageWidth="850" pageHeight="1100" math="0" shadow="0">
      <root>
        <mxCell id="0" />
        <mxCell id="1" parent="0" />
        <mxCell id="lKtqNBKTyrtOrb42Smis-4" value="Dealer management system" style="whiteSpace=wrap;html=1;aspect=fixed;" parent="1" vertex="1">
          <mxGeometry x="385" y="120" width="80" height="80" as="geometry" />
        </mxCell>
        <mxCell id="lKtqNBKTyrtOrb42Smis-5" value="OEM/3rd Parties systems" style="whiteSpace=wrap;html=1;aspect=fixed;" parent="1" vertex="1">
          <mxGeometry x="640" y="120" width="80" height="80" as="geometry" />
        </mxCell>
        <mxCell id="lKtqNBKTyrtOrb42Smis-6" value="Dealership Personnel" style="shape=umlActor;verticalLabelPosition=bottom;verticalAlign=top;html=1;outlineConnect=0;" parent="1" vertex="1">
          <mxGeometry x="110" y="120" width="30" height="60" as="geometry" />
        </mxCell>
        <mxCell id="lKtqNBKTyrtOrb42Smis-7" value="" style="endArrow=classic;html=1;" parent="1" source="lKtqNBKTyrtOrb42Smis-6" edge="1">
          <mxGeometry width="50" height="50" relative="1" as="geometry">
            <mxPoint x="230" y="200" as="sourcePoint" />
            <mxPoint x="380" y="170" as="targetPoint" />
          </mxGeometry>
        </mxCell>
        <mxCell id="lKtqNBKTyrtOrb42Smis-8" value="" style="endArrow=classic;startArrow=classic;html=1;entryX=-0.01;entryY=0.66;entryDx=0;entryDy=0;entryPerimeter=0;exitX=1;exitY=0.5;exitDx=0;exitDy=0;" parent="1" source="lKtqNBKTyrtOrb42Smis-4" target="lKtqNBKTyrtOrb42Smis-5" edge="1">
          <mxGeometry width="50" height="50" relative="1" as="geometry">
            <mxPoint x="520" y="180" as="sourcePoint" />
            <mxPoint x="570" y="130" as="targetPoint" />
          </mxGeometry>
        </mxCell>
        <mxCell id="lKtqNBKTyrtOrb42Smis-9" value="Context" style="text;html=1;align=center;verticalAlign=middle;resizable=0;points=[];autosize=1;strokeColor=none;" parent="1" vertex="1">
          <mxGeometry x="360" y="40" width="60" height="20" as="geometry" />
        </mxCell>
        <mxCell id="lKtqNBKTyrtOrb42Smis-10" value="Container&lt;br&gt;" style="text;html=1;align=center;verticalAlign=middle;resizable=0;points=[];autosize=1;strokeColor=none;" parent="1" vertex="1">
          <mxGeometry x="345" y="340" width="70" height="20" as="geometry" />
        </mxCell>
        <mxCell id="lKtqNBKTyrtOrb42Smis-11" value="Web application" style="whiteSpace=wrap;html=1;aspect=fixed;" parent="1" vertex="1">
          <mxGeometry x="140" y="420" width="80" height="80" as="geometry" />
        </mxCell>
        <mxCell id="lKtqNBKTyrtOrb42Smis-12" value="API Layer" style="whiteSpace=wrap;html=1;aspect=fixed;" parent="1" vertex="1">
          <mxGeometry x="360" y="410" width="80" height="80" as="geometry" />
        </mxCell>
        <mxCell id="lKtqNBKTyrtOrb42Smis-14" value="PICK Database" style="shape=cylinder3;whiteSpace=wrap;html=1;boundedLbl=1;backgroundOutline=1;size=15;" parent="1" vertex="1">
          <mxGeometry x="660" y="410" width="60" height="80" as="geometry" />
        </mxCell>
        <mxCell id="lKtqNBKTyrtOrb42Smis-15" value="" style="endArrow=classic;html=1;entryX=0;entryY=0.625;entryDx=0;entryDy=0;entryPerimeter=0;exitX=1;exitY=0.5;exitDx=0;exitDy=0;" parent="1" source="lKtqNBKTyrtOrb42Smis-11" target="lKtqNBKTyrtOrb42Smis-12" edge="1">
          <mxGeometry width="50" height="50" relative="1" as="geometry">
            <mxPoint x="220" y="480" as="sourcePoint" />
            <mxPoint x="270" y="430" as="targetPoint" />
          </mxGeometry>
        </mxCell>
        <mxCell id="lKtqNBKTyrtOrb42Smis-16" value="" style="endArrow=classic;html=1;entryX=0;entryY=0;entryDx=0;entryDy=52.5;entryPerimeter=0;exitX=1;exitY=0.5;exitDx=0;exitDy=0;" parent="1" source="lKtqNBKTyrtOrb42Smis-12" target="lKtqNBKTyrtOrb42Smis-14" edge="1">
          <mxGeometry width="50" height="50" relative="1" as="geometry">
            <mxPoint x="490" y="470" as="sourcePoint" />
            <mxPoint x="540" y="420" as="targetPoint" />
          </mxGeometry>
        </mxCell>
        <mxCell id="lKtqNBKTyrtOrb42Smis-17" value="OIP" style="whiteSpace=wrap;html=1;aspect=fixed;" parent="1" vertex="1">
          <mxGeometry x="370" y="550" width="80" height="80" as="geometry" />
        </mxCell>
        <mxCell id="lKtqNBKTyrtOrb42Smis-18" value="Dealership&lt;br&gt;Personnel" style="shape=umlActor;verticalLabelPosition=bottom;verticalAlign=top;html=1;outlineConnect=0;" parent="1" vertex="1">
          <mxGeometry x="20" y="420" width="30" height="60" as="geometry" />
        </mxCell>
        <mxCell id="lKtqNBKTyrtOrb42Smis-19" value="" style="endArrow=classic;startArrow=classic;html=1;exitX=0.5;exitY=0;exitDx=0;exitDy=0;" parent="1" source="lKtqNBKTyrtOrb42Smis-17" edge="1">
          <mxGeometry width="50" height="50" relative="1" as="geometry">
            <mxPoint x="360" y="540" as="sourcePoint" />
            <mxPoint x="410" y="490" as="targetPoint" />
          </mxGeometry>
        </mxCell>
        <mxCell id="lKtqNBKTyrtOrb42Smis-20" value="Dealership Personnel&lt;br&gt;" style="shape=umlActor;verticalLabelPosition=bottom;verticalAlign=top;html=1;outlineConnect=0;" parent="1" vertex="1">
          <mxGeometry x="220" y="730" width="30" height="60" as="geometry" />
        </mxCell>
        <mxCell id="lKtqNBKTyrtOrb42Smis-22" value="" style="outlineConnect=0;dashed=0;verticalLabelPosition=bottom;verticalAlign=top;align=center;html=1;shape=mxgraph.aws3.cloudfront;fillColor=#F58536;gradientColor=none;" parent="1" vertex="1">
          <mxGeometry x="200" y="920" width="76.5" height="93" as="geometry" />
        </mxCell>
        <mxCell id="lKtqNBKTyrtOrb42Smis-23" value="" style="outlineConnect=0;dashed=0;verticalLabelPosition=bottom;verticalAlign=top;align=center;html=1;shape=mxgraph.aws3.bucket;fillColor=#E05243;gradientColor=none;" parent="1" vertex="1">
          <mxGeometry x="60" y="990" width="60" height="61.5" as="geometry" />
        </mxCell>
        <mxCell id="lKtqNBKTyrtOrb42Smis-24" value="S3" style="text;html=1;align=center;verticalAlign=middle;resizable=0;points=[];autosize=1;strokeColor=none;" parent="1" vertex="1">
          <mxGeometry x="65" y="1050" width="30" height="20" as="geometry" />
        </mxCell>
        <mxCell id="lKtqNBKTyrtOrb42Smis-25" value="cloudfront" style="text;html=1;align=center;verticalAlign=middle;resizable=0;points=[];autosize=1;strokeColor=none;" parent="1" vertex="1">
          <mxGeometry x="210" y="1010.75" width="70" height="20" as="geometry" />
        </mxCell>
        <mxCell id="lKtqNBKTyrtOrb42Smis-28" value="" style="outlineConnect=0;dashed=0;verticalLabelPosition=bottom;verticalAlign=top;align=center;html=1;shape=mxgraph.aws3.lambda;fillColor=#F58534;gradientColor=none;" parent="1" vertex="1">
          <mxGeometry x="570" y="917.75" width="76.5" height="93" as="geometry" />
        </mxCell>
        <mxCell id="lKtqNBKTyrtOrb42Smis-30" style="edgeStyle=orthogonalEdgeStyle;rounded=0;orthogonalLoop=1;jettySize=auto;html=1;exitX=0.65;exitY=0.5;exitDx=0;exitDy=0;exitPerimeter=0;" parent="1" source="lKtqNBKTyrtOrb42Smis-29" edge="1">
          <mxGeometry relative="1" as="geometry">
            <mxPoint x="450" y="980" as="targetPoint" />
          </mxGeometry>
        </mxCell>
        <mxCell id="lKtqNBKTyrtOrb42Smis-29" value="" style="outlineConnect=0;dashed=0;verticalLabelPosition=bottom;verticalAlign=top;align=center;html=1;shape=mxgraph.aws3.api_gateway;fillColor=#D9A741;gradientColor=none;" parent="1" vertex="1">
          <mxGeometry x="425" y="917.75" width="76.5" height="93" as="geometry" />
        </mxCell>
        <mxCell id="lKtqNBKTyrtOrb42Smis-31" value="" style="endArrow=classic;html=1;" parent="1" target="lKtqNBKTyrtOrb42Smis-22" edge="1">
          <mxGeometry width="50" height="50" relative="1" as="geometry">
            <mxPoint x="240" y="810" as="sourcePoint" />
            <mxPoint x="450" y="810" as="targetPoint" />
          </mxGeometry>
        </mxCell>
        <mxCell id="lKtqNBKTyrtOrb42Smis-32" value="" style="endArrow=classic;html=1;entryX=0.94;entryY=0.5;entryDx=0;entryDy=0;entryPerimeter=0;" parent="1" source="lKtqNBKTyrtOrb42Smis-22" target="lKtqNBKTyrtOrb42Smis-23" edge="1">
          <mxGeometry width="50" height="50" relative="1" as="geometry">
            <mxPoint x="80" y="950" as="sourcePoint" />
            <mxPoint x="130" y="900" as="targetPoint" />
          </mxGeometry>
        </mxCell>
        <mxCell id="lKtqNBKTyrtOrb42Smis-33" value="" style="endArrow=classic;html=1;" parent="1" source="lKtqNBKTyrtOrb42Smis-22" target="lKtqNBKTyrtOrb42Smis-29" edge="1">
          <mxGeometry width="50" height="50" relative="1" as="geometry">
            <mxPoint x="310" y="900" as="sourcePoint" />
            <mxPoint x="360" y="850" as="targetPoint" />
          </mxGeometry>
        </mxCell>
        <mxCell id="lKtqNBKTyrtOrb42Smis-34" value="" style="endArrow=classic;html=1;entryX=0;entryY=0.5;entryDx=0;entryDy=0;entryPerimeter=0;" parent="1" source="lKtqNBKTyrtOrb42Smis-29" target="lKtqNBKTyrtOrb42Smis-28" edge="1">
          <mxGeometry width="50" height="50" relative="1" as="geometry">
            <mxPoint x="490" y="830" as="sourcePoint" />
            <mxPoint x="540" y="780" as="targetPoint" />
          </mxGeometry>
        </mxCell>
        <mxCell id="lKtqNBKTyrtOrb42Smis-35" value="" style="shape=cylinder3;whiteSpace=wrap;html=1;boundedLbl=1;backgroundOutline=1;size=15;" parent="1" vertex="1">
          <mxGeometry x="738" y="1010" width="60" height="80" as="geometry" />
        </mxCell>
        <mxCell id="lKtqNBKTyrtOrb42Smis-36" value="Dynamo DB" style="outlineConnect=0;dashed=0;verticalLabelPosition=bottom;verticalAlign=top;align=center;html=1;shape=mxgraph.aws3.dynamo_db;fillColor=#2E73B8;gradientColor=none;" parent="1" vertex="1">
          <mxGeometry x="738" y="880" width="72" height="81" as="geometry" />
        </mxCell>
        <mxCell id="lKtqNBKTyrtOrb42Smis-37" value="" style="endArrow=classic;html=1;" parent="1" source="lKtqNBKTyrtOrb42Smis-28" target="lKtqNBKTyrtOrb42Smis-36" edge="1">
          <mxGeometry width="50" height="50" relative="1" as="geometry">
            <mxPoint x="630" y="910" as="sourcePoint" />
            <mxPoint x="680" y="860" as="targetPoint" />
          </mxGeometry>
        </mxCell>
        <mxCell id="lKtqNBKTyrtOrb42Smis-38" value="" style="endArrow=classic;html=1;entryX=0;entryY=0;entryDx=0;entryDy=52.5;entryPerimeter=0;" parent="1" source="lKtqNBKTyrtOrb42Smis-28" target="lKtqNBKTyrtOrb42Smis-35" edge="1">
          <mxGeometry width="50" height="50" relative="1" as="geometry">
            <mxPoint x="620" y="1080" as="sourcePoint" />
            <mxPoint x="670" y="1030" as="targetPoint" />
          </mxGeometry>
        </mxCell>
        <mxCell id="lKtqNBKTyrtOrb42Smis-39" value="DB" style="text;html=1;align=center;verticalAlign=middle;resizable=0;points=[];autosize=1;strokeColor=none;" parent="1" vertex="1">
          <mxGeometry x="765" y="1060" width="30" height="20" as="geometry" />
        </mxCell>
        <mxCell id="lKtqNBKTyrtOrb42Smis-42" value="Lambda" style="text;html=1;align=center;verticalAlign=middle;resizable=0;points=[];autosize=1;strokeColor=none;" parent="1" vertex="1">
          <mxGeometry x="580" y="1020" width="60" height="20" as="geometry" />
        </mxCell>
        <mxCell id="lKtqNBKTyrtOrb42Smis-43" value="API Gateway" style="text;html=1;align=center;verticalAlign=middle;resizable=0;points=[];autosize=1;strokeColor=none;" parent="1" vertex="1">
          <mxGeometry x="425" y="1010" width="90" height="20" as="geometry" />
        </mxCell>
      </root>
    </mxGraphModel>
  </diagram>
</mxfile>
